<?xml version="1.0" encoding="utf-8"?><svg width="72" height="50" viewBox="0 0 72 50" xmlns="http://www.w3.org/2000/svg" xmlns:xlink="http://www.w3.org/1999/xlink"><svg preserveAspectRatio="xMidYMid" width="36" height="36" viewBox="-1 -1 36 36" id="agent_fb" xmlns="http://www.w3.org/2000/svg"><path fill="#282c38" d="M0 0v34h34V0H0zm21.713 16.452h-3.629v12.119h-3.971V16.452h-2.647v-2.716h2.67V9.398a3.969 3.969 0 0 1 3.969-3.969h3.836v3.446h-2.763c-.604 0-1.094.49-1.094 1.094v3.767h4.45l-.821 2.716z" class="acls-1"/></svg><svg preserveAspectRatio="xMidYMid" width="36" height="36" viewBox="-1 -1 36 36" id="agent_fb_hov" x="36" xmlns="http://www.w3.org/2000/svg"><path fill="#2dc683" d="M0 0v34h34V0H0zm21.713 16.452h-3.629v12.119h-3.971V16.452h-2.647v-2.716h2.67V9.398a3.969 3.969 0 0 1 3.969-3.969h3.836v3.446h-2.763c-.604 0-1.094.49-1.094 1.094v3.767h4.45l-.821 2.716z" class="bcls-1"/></svg><svg data-name="Layer 1" viewBox="-1 -1 8 14" width="8" height="14" id="next-arrow" y="36" xmlns="http://www.w3.org/2000/svg"><path fill="#fff" d="M.6 12l-.6-.67L4.8 6 0 .67.6 0 6 6 .6 12z"/></svg><svg data-name="Layer 1" viewBox="-1 -1 8 14" width="8" height="14" id="previous-arrow" x="8" y="36" xmlns="http://www.w3.org/2000/svg"><path fill="#fff" d="M5.4 12l.6-.67L1.2 6 6 .67 5.4 0 0 6l5.4 6z"/></svg></svg>